<svg width="49" height="48" viewBox="0 0 49 48" fill="none" xmlns="http://www.w3.org/2000/svg">
<path fill-rule="evenodd" clip-rule="evenodd" d="M14.9395 16.5H17.2473L17.9406 29.2906L17.979 30H18.6895H30.6895H31.3401L31.432 29.3559L32.932 18.8355L33.054 17.9796H32.1895H18.8297L18.7066 15.7094L18.6682 15H17.9577H14.9395V16.5ZM19.1153 23.25L18.911 19.4796H23.1895V23.25H19.1153ZM19.1966 24.75L19.3999 28.5H24.6895V24.75H19.1966ZM26.1895 24.75V28.5H30.0388L30.5735 24.75H26.1895ZM30.7873 23.25L31.3249 19.4796H24.6895V23.25H30.7873ZM20.1895 31.875C20.1895 32.4963 19.6858 33 19.0645 33C18.4431 33 17.9395 32.4963 17.9395 31.875C17.9395 31.2537 18.4431 30.75 19.0645 30.75C19.6858 30.75 20.1895 31.2537 20.1895 31.875ZM30.3145 33C30.9358 33 31.4395 32.4963 31.4395 31.875C31.4395 31.2537 30.9358 30.75 30.3145 30.75C29.6932 30.75 29.1895 31.2537 29.1895 31.875C29.1895 32.4963 29.6932 33 30.3145 33Z" fill="#484444"/>
</svg>
