<svg width="49" height="48" viewBox="0 0 49 48" fill="none" xmlns="http://www.w3.org/2000/svg">
<path fill-rule="evenodd" clip-rule="evenodd" d="M22.3032 18.2385C23.6212 16.9205 25.7581 16.9205 27.0762 18.2385C28.3942 19.5565 28.3942 21.6934 27.0762 23.0115C25.7581 24.3295 23.6212 24.3295 22.3032 23.0115C20.9852 21.6934 20.9852 19.5565 22.3032 18.2385ZM21.2425 17.1779C23.1463 15.274 26.233 15.274 28.1368 17.1779C30.0406 19.0817 30.0406 22.1683 28.1368 24.0721C26.233 25.9759 23.1463 25.9759 21.2425 24.0721C19.3387 22.1683 19.3387 19.0817 21.2425 17.1779ZM20.9917 28.5H28.4396C30.0964 28.5 31.4396 29.8432 31.4396 31.5H17.9917C17.9917 29.8432 19.3348 28.5 20.9917 28.5ZM16.4917 31.5C16.4917 29.0147 18.5064 27 20.9917 27H28.4396C30.9249 27 32.9396 29.0147 32.9396 31.5V33H31.4396H17.9917H16.4917V31.5Z" fill="#484444"/>
</svg>
