<svg width="180" height="37" viewBox="0 0 180 37" fill="none" xmlns="http://www.w3.org/2000/svg">
<path d="M51.6 5.48H59.6V33H51.6V5.48ZM61.28 26.88H62.92C63.6667 26.88 64.2267 26.8667 64.6 26.84C65 26.7867 65.2933 26.68 65.48 26.52C65.6667 26.36 65.7867 26.1333 65.84 25.84C65.92 25.5467 65.96 25.12 65.96 24.56C65.96 23.9733 65.92 23.5333 65.84 23.24C65.7867 22.9467 65.6667 22.72 65.48 22.56C65.16 22.2933 64.3067 22.16 62.92 22.16H61.28V16.04H62.68C63.4267 16.04 63.9867 16.0267 64.36 16C64.76 15.9467 65.0533 15.84 65.24 15.68C65.4267 15.52 65.5467 15.3067 65.6 15.04C65.68 14.7467 65.72 14.3467 65.72 13.84C65.72 13.3067 65.68 12.9067 65.6 12.64C65.5467 12.3467 65.4267 12.12 65.24 11.96C65.0533 11.8 64.76 11.7067 64.36 11.68C63.9867 11.6267 63.4267 11.6 62.68 11.6H61.28V5.48H65.84C71.2 5.48 73.88 7.78667 73.88 12.4C73.88 14.3467 73.4933 15.8133 72.72 16.8C71.9733 17.7867 70.7733 18.48 69.12 18.88V19.04C70.8533 19.44 72.0933 20.0667 72.84 20.92C73.6933 21.9333 74.12 23.5067 74.12 25.64C74.12 28.0933 73.4667 29.9333 72.16 31.16C70.8533 32.3867 68.76 33 65.88 33H61.28V26.88ZM78.3969 5.48H86.3969V33H78.3969V5.48ZM88.0769 5.48H98.2369V11.6H88.0769V5.48ZM88.0769 16.04H96.3569V22.16H88.0769V16.04ZM88.0769 26.88H98.2369V33H88.0769V26.88ZM103.045 5.48H111.045V33H103.045V5.48ZM112.725 5.48H122.085V11.6H112.725V5.48ZM112.725 16.84H120.605V22.96H112.725V16.84ZM137.292 33.32C134.492 33.32 132.332 33.0933 130.812 32.64C129.292 32.1867 128.172 31.4533 127.452 30.44C126.786 29.5067 126.372 28.32 126.212 26.88C126.052 25.44 125.972 23.2933 125.972 20.44V5.48H133.972V22.04C133.972 23.0267 133.999 23.9733 134.052 24.88C134.106 25.6 134.226 26.12 134.412 26.44C134.599 26.76 134.919 26.96 135.372 27.04C135.772 27.1467 136.412 27.2 137.292 27.2H138.212C138.426 27.2 138.666 27.1733 138.932 27.12V33.28C138.746 33.3067 138.479 33.32 138.132 33.32H137.292ZM140.612 5.48H148.612V20.44C148.612 23.0533 148.559 25.0267 148.452 26.36C148.346 27.6933 148.052 28.8133 147.572 29.72C147.039 30.76 146.226 31.56 145.132 32.12C144.039 32.68 142.532 33.04 140.612 33.2V5.48ZM153.709 6.6V5.48H161.709L177.149 31.84V33H169.189L153.709 6.6ZM169.549 15.52V5.48H177.149V28.52L169.549 15.52ZM153.709 9.92L161.309 22.92V33H153.709V9.92Z" fill="black"/>
<path fill-rule="evenodd" clip-rule="evenodd" d="M18.5 0C28.7507 0 37 8.29815 37 18.5C37 28.7507 28.7507 37 18.5 37C8.29815 37 0 28.7507 0 18.5C0 8.29815 8.29815 0 18.5 0ZM8.4934 8.4934H12.3984V12.3984H8.4934V8.4934ZM13.8628 13.8628H17.7678V17.7678H13.8628V13.8628ZM8.4934 13.8628H12.3984V17.7678H8.4934V13.8628ZM19.281 19.281H23.1372V23.1372H19.281V19.281ZM13.8628 19.281H17.7678V23.1372H13.8628V19.281ZM8.4934 19.281H12.3984V23.1372H8.4934V19.281ZM24.6504 24.6504H28.5554V28.5554H24.6504V24.6504ZM19.281 24.6504H23.1372V28.5554H19.281V24.6504ZM13.8628 24.6504H17.7678V28.5554H13.8628V24.6504ZM8.4934 24.6504H12.3984V28.5554H8.4934V24.6504Z" fill="black"/>
</svg>
