<svg width="250" height="45" viewBox="0 0 250 45" fill="none" xmlns="http://www.w3.org/2000/svg">
<path fill-rule="evenodd" clip-rule="evenodd" d="M22.1593 0C34.4376 0 44.3187 9.93955 44.3187 22.1593C44.3187 34.4376 34.4376 44.3187 22.1593 44.3187C9.93955 44.3187 0 34.4376 0 22.1593C0 9.93955 9.93955 0 22.1593 0ZM10.1734 10.1734H14.8509V14.8509H10.1734V10.1734ZM16.6049 16.6049H21.2823V21.2823H16.6049V16.6049ZM10.1734 16.6049H14.8509V21.2823H10.1734V16.6049ZM23.0948 23.0948H27.7138V27.7138H23.0948V23.0948ZM16.6049 23.0948H21.2823V27.7138H16.6049V23.0948ZM10.1734 23.0948H14.8509V27.7138H10.1734V23.0948ZM29.5263 29.5263H34.2037V34.2037H29.5263V29.5263ZM23.0948 29.5263H27.7138V34.2037H23.0948V29.5263ZM16.6049 29.5263H21.2823V34.2037H16.6049V29.5263ZM10.1734 29.5263H14.8509V34.2037H10.1734V29.5263Z" fill="white"/>
<path d="M64.9999 32.1213C65.013 32.1319 65.0257 32.1442 65.0371 32.1569L71.9532 39.6639V12.1026V12.0408C71.9414 12.0307 71.93 12.0201 71.9194 12.0083L64.9999 4.6442V32.1213Z" fill="white"/>
<path d="M83.8076 4.08164C83.7556 4.02876 83.6939 4 83.6334 4H65.5861L72.6778 11.2097C72.7036 11.2359 72.7256 11.2651 72.7433 11.2964H90.9048L83.8076 4.08164Z" fill="white"/>
<path d="M91.2812 12.1423H84.5318V18.9392C84.5318 18.9493 84.5267 18.9582 84.5259 18.968L91.2808 25.835L91.2812 12.1423Z" fill="white"/>
<path d="M83.8076 19.4438C83.7556 19.3909 83.6939 19.3622 83.6334 19.3622H72.7992V26.6586H90.9048L87.3562 23.0512L83.8076 19.4438Z" fill="white"/>
<path d="M83.932 33.2875H72.7992V40.163H90.695L83.932 33.2875Z" fill="white"/>
<path d="M91.2812 27.5045H84.5318V32.6915L91.2812 39.5531V27.5045Z" fill="white"/>
<path d="M223.719 32.4471C223.732 32.4578 223.744 32.4702 223.756 32.483L230.672 40.077V12.1964V12.134C230.66 12.1237 230.649 12.113 230.638 12.101L223.719 4.65166V32.4471Z" fill="white"/>
<path d="M242.526 4.08258C242.474 4.0291 242.413 4 242.352 4H224.305L231.397 11.2932C231.422 11.3197 231.444 11.3492 231.462 11.3809H249.624L242.526 4.08258Z" fill="white"/>
<path d="M250 12.2367H243.251V19.1123C243.251 19.1225 243.251 27.767 243.251 27.7768H250V12.2367Z" fill="white"/>
<path d="M250 27.7768H243.251V33.0239L250 39.9649V27.7768Z" fill="white"/>
<path d="M104.956 32.1213C104.97 32.1319 104.982 32.1442 104.994 32.1569L111.91 39.6639V12.1026V12.0408C111.898 12.0307 111.886 12.0201 111.876 12.0083L104.956 4.6442V32.1213Z" fill="white"/>
<path d="M123.764 4.08164C123.712 4.02876 123.65 4 123.59 4H105.543L112.634 11.2097C112.66 11.2359 112.682 11.2651 112.7 11.2964H130.861L123.764 4.08164Z" fill="white"/>
<path d="M123.764 19.4438C123.712 19.3909 123.65 19.3622 123.59 19.3622H112.756V26.6586H130.861L127.313 23.0512L123.764 19.4438Z" fill="white"/>
<path d="M123.889 33.2875H112.756V40.163H130.652L123.889 33.2875Z" fill="white"/>
<path d="M183.867 32.0139C183.88 32.0247 183.893 32.0372 183.904 32.0502L190.82 39.7039V11.6041V11.5411C190.809 11.5308 190.797 11.52 190.787 11.5079L183.867 4V32.0139Z" fill="white"/>
<path d="M210.148 11.6446L203.278 4L203.399 18.5743C203.399 18.5846 203.394 18.5937 203.393 18.6036L210.148 25.6048L210.148 11.6446Z" fill="white"/>
<path d="M202.799 33.2029H191.666V40.2127H209.562L202.799 33.2029Z" fill="white"/>
<path d="M210.148 25.6048L203.399 18.5743V32.5953L210.148 39.5909L210.148 25.6048Z" fill="white"/>
<path d="M163.169 19.6227C163.117 19.5692 163.055 19.5401 162.994 19.5401H152.117V26.921H170.295L163.169 19.6227ZM163.169 4.08258C163.117 4.0291 163.055 4 162.994 4H144.875L151.995 11.2932C152.021 11.3197 152.043 11.3492 152.06 11.3809H170.295L163.169 4.08258ZM144.286 32.4471C144.299 32.4578 144.312 32.4702 144.323 32.483L151.267 40.077V12.1964V12.134C151.255 12.1237 151.244 12.113 151.233 12.101L144.286 4.65166V32.4471Z" fill="white"/>
</svg>
