<svg width="133" height="49" viewBox="0 0 133 49" fill="none" xmlns="http://www.w3.org/2000/svg">
<rect x="0.389648" y="0.930176" width="131.67" height="48" rx="24" fill="#4CB350"/>
<path d="M22.4442 31.5303V18.9351H24.0378V30.1671H29.5482V31.5303H22.4442ZM35.1855 31.7607C34.3535 31.7607 33.5983 31.5687 32.9199 31.1847C32.2415 30.7879 31.7039 30.2247 31.3071 29.4951C30.9103 28.7655 30.7119 27.8951 30.7119 26.8839C30.7119 25.8599 30.9103 24.9831 31.3071 24.2535C31.7167 23.5239 32.2415 22.9607 32.8815 22.5639C33.5215 22.1671 34.1935 21.9687 34.8975 21.9687C36.0879 21.9687 37.0031 22.3655 37.6431 23.1591C38.2959 23.9527 38.6223 25.0151 38.6223 26.3463C38.6223 26.5127 38.6159 26.6791 38.6031 26.8455C38.6031 26.9991 38.5903 27.1335 38.5647 27.2487H32.2671C32.3311 28.2343 32.6383 29.0215 33.1887 29.6103C33.7519 30.1991 34.4815 30.4935 35.3775 30.4935C35.8255 30.4935 36.2351 30.4295 36.6063 30.3015C36.9903 30.1607 37.3551 29.9815 37.7007 29.7639L38.2575 30.8007C37.8607 31.0567 37.4063 31.2807 36.8943 31.4727C36.3951 31.6647 35.8255 31.7607 35.1855 31.7607ZM32.2479 26.1159H37.2399C37.2399 25.1687 37.0351 24.4519 36.6255 23.9655C36.2287 23.4663 35.6655 23.2167 34.9359 23.2167C34.2831 23.2167 33.6943 23.4727 33.1695 23.9847C32.6575 24.4839 32.3503 25.1943 32.2479 26.1159ZM42.816 31.7607C42.0352 31.7607 41.3824 31.5303 40.8576 31.0695C40.3456 30.5959 40.0896 29.9431 40.0896 29.1111C40.0896 28.0871 40.544 27.3063 41.4528 26.7687C42.3744 26.2183 43.8272 25.8343 45.8112 25.6167C45.8112 25.2199 45.7536 24.8423 45.6384 24.4839C45.536 24.1255 45.344 23.8375 45.0624 23.6199C44.7936 23.3895 44.4032 23.2743 43.8912 23.2743C43.3536 23.2743 42.848 23.3767 42.3744 23.5815C41.9008 23.7863 41.4784 24.0167 41.1072 24.2727L40.4928 23.1783C40.928 22.8967 41.4592 22.6279 42.0864 22.3719C42.7264 22.1031 43.4176 21.9687 44.16 21.9687C45.2992 21.9687 46.1248 22.3207 46.6368 23.0247C47.1488 23.7159 47.4048 24.6439 47.4048 25.8087V31.5303H46.0992L45.9648 30.4167H45.9072C45.472 30.7751 44.992 31.0887 44.4672 31.3575C43.9552 31.6263 43.4048 31.7607 42.816 31.7607ZM43.2768 30.4935C43.7248 30.4935 44.1472 30.3847 44.544 30.1671C44.9408 29.9495 45.3632 29.6423 45.8112 29.2455V26.6535C44.2624 26.8455 43.1744 27.1335 42.5472 27.5175C41.9328 27.9015 41.6256 28.3943 41.6256 28.9959C41.6256 29.5207 41.7856 29.9047 42.1056 30.1479C42.4256 30.3783 42.816 30.4935 43.2768 30.4935ZM50.3406 31.5303V22.1991H51.6462L51.7806 23.8887H51.8382C52.1582 23.2999 52.5486 22.8327 53.0094 22.4871C53.4702 22.1415 53.963 21.9687 54.4878 21.9687C54.859 21.9687 55.1918 22.0327 55.4862 22.1607L55.179 23.5431C55.0254 23.4919 54.8846 23.4535 54.7566 23.4279C54.6286 23.4023 54.4686 23.3895 54.2766 23.3895C53.8798 23.3895 53.4638 23.5495 53.0286 23.8695C52.6062 24.1895 52.235 24.7463 51.915 25.5399V31.5303H50.3406ZM56.9969 31.5303V22.1991H58.3025L58.4369 23.5431H58.4945C58.9425 23.0951 59.4161 22.7239 59.9153 22.4295C60.4145 22.1223 60.9841 21.9687 61.6241 21.9687C62.6097 21.9687 63.3265 22.2823 63.7745 22.9095C64.2353 23.5239 64.4657 24.4263 64.4657 25.6167V31.5303H62.8913V25.8279C62.8913 24.9575 62.7505 24.3239 62.4689 23.9271C62.1873 23.5303 61.7393 23.3319 61.1249 23.3319C60.6513 23.3319 60.2225 23.4535 59.8385 23.6967C59.4673 23.9399 59.0449 24.2983 58.5713 24.7719V31.5303H56.9969ZM71.3407 31.5303V22.1991H72.6463L72.7807 23.5431H72.8383C73.2479 23.0951 73.6959 22.7239 74.1823 22.4295C74.6687 22.1223 75.1871 21.9687 75.7375 21.9687C76.4543 21.9687 77.0111 22.1287 77.4079 22.4487C77.8175 22.7559 78.1183 23.1911 78.3103 23.7543C78.7967 23.2295 79.2895 22.8007 79.7887 22.4679C80.2879 22.1351 80.8191 21.9687 81.3823 21.9687C82.3423 21.9687 83.0527 22.2823 83.5135 22.9095C83.9871 23.5239 84.2239 24.4263 84.2239 25.6167V31.5303H82.6495V25.8279C82.6495 24.9575 82.5087 24.3239 82.2271 23.9271C81.9455 23.5303 81.5103 23.3319 80.9215 23.3319C80.2303 23.3319 79.4495 23.8119 78.5791 24.7719V31.5303H77.0047V25.8279C77.0047 24.9575 76.8639 24.3239 76.5823 23.9271C76.3007 23.5303 75.8591 23.3319 75.2575 23.3319C74.5663 23.3319 73.7855 23.8119 72.9151 24.7719V31.5303H71.3407ZM90.8882 31.7607C90.133 31.7607 89.4226 31.5687 88.757 31.1847C88.1042 30.8007 87.573 30.2439 87.1634 29.5143C86.7666 28.7847 86.5682 27.9079 86.5682 26.8839C86.5682 25.8343 86.7666 24.9447 87.1634 24.2151C87.573 23.4855 88.1042 22.9287 88.757 22.5447C89.4226 22.1607 90.133 21.9687 90.8882 21.9687C91.6562 21.9687 92.3666 22.1607 93.0194 22.5447C93.6722 22.9287 94.197 23.4855 94.5938 24.2151C95.0034 24.9447 95.2082 25.8343 95.2082 26.8839C95.2082 27.9079 95.0034 28.7847 94.5938 29.5143C94.197 30.2439 93.6722 30.8007 93.0194 31.1847C92.3666 31.5687 91.6562 31.7607 90.8882 31.7607ZM90.8882 30.4551C91.6946 30.4551 92.341 30.1287 92.8274 29.4759C93.3266 28.8103 93.5762 27.9463 93.5762 26.8839C93.5762 25.8087 93.3266 24.9383 92.8274 24.2727C92.341 23.6071 91.6946 23.2743 90.8882 23.2743C90.0946 23.2743 89.4482 23.6071 88.949 24.2727C88.4498 24.9383 88.2002 25.8087 88.2002 26.8839C88.2002 27.9463 88.4498 28.8103 88.949 29.4759C89.4482 30.1287 90.0946 30.4551 90.8882 30.4551ZM97.6656 31.5303V22.1991H98.9712L99.1056 23.8887H99.1632C99.4832 23.2999 99.8736 22.8327 100.334 22.4871C100.795 22.1415 101.288 21.9687 101.813 21.9687C102.184 21.9687 102.517 22.0327 102.811 22.1607L102.504 23.5431C102.35 23.4919 102.21 23.4535 102.082 23.4279C101.954 23.4023 101.794 23.3895 101.602 23.3895C101.205 23.3895 100.789 23.5495 100.354 23.8695C99.9312 24.1895 99.56 24.7463 99.24 25.5399V31.5303H97.6656ZM107.917 31.7607C107.085 31.7607 106.33 31.5687 105.651 31.1847C104.973 30.7879 104.435 30.2247 104.038 29.4951C103.642 28.7655 103.443 27.8951 103.443 26.8839C103.443 25.8599 103.642 24.9831 104.038 24.2535C104.448 23.5239 104.973 22.9607 105.613 22.5639C106.253 22.1671 106.925 21.9687 107.629 21.9687C108.819 21.9687 109.734 22.3655 110.374 23.1591C111.027 23.9527 111.354 25.0151 111.354 26.3463C111.354 26.5127 111.347 26.6791 111.334 26.8455C111.334 26.9991 111.322 27.1335 111.296 27.2487H104.998C105.062 28.2343 105.37 29.0215 105.92 29.6103C106.483 30.1991 107.213 30.4935 108.109 30.4935C108.557 30.4935 108.966 30.4295 109.338 30.3015C109.722 30.1607 110.086 29.9815 110.432 29.7639L110.989 30.8007C110.592 31.0567 110.138 31.2807 109.626 31.4727C109.126 31.6647 108.557 31.7607 107.917 31.7607ZM104.979 26.1159H109.971C109.971 25.1687 109.766 24.4519 109.357 23.9655C108.96 23.4663 108.397 23.2167 107.667 23.2167C107.014 23.2167 106.426 23.4727 105.901 23.9847C105.389 24.4839 105.082 25.1943 104.979 26.1159Z" fill="white"/>
</svg>
