<svg width="178" height="45" viewBox="0 0 178 45" fill="none" xmlns="http://www.w3.org/2000/svg">
<rect width="178" height="45" rx="22.5" fill="#4CB350"/>
<path d="M43.6276 14.592H45.7716V29.408H43.6276V14.592ZM45.2116 20.256H47.8196V22H45.2116V20.256ZM39.7396 16.128H41.8196C41.8196 20.576 40.1236 24.384 35.1956 26.864L34.0116 25.248C37.8996 23.232 39.7396 20.512 39.7396 16.496V16.128ZM34.8276 16.128H40.8276V17.84H34.8276V16.128ZM50.4104 15.472H59.7064V17.152H50.4104V15.472ZM48.8904 21.776H62.2824V23.488H48.8904V21.776ZM54.4424 22.976H56.5864V29.44H54.4424V22.976ZM58.6184 15.472H60.7144V16.784C60.7144 18.384 60.7144 20.176 60.1384 22.8L58.0424 22.56C58.6184 20.08 58.6184 18.32 58.6184 16.784V15.472ZM77.7219 14.608H79.8659V29.472H77.7219V14.608ZM68.4579 24.16H69.7379C72.8579 24.16 74.6179 24.096 76.6019 23.728L76.7939 25.472C74.7939 25.872 72.9219 25.936 69.7379 25.936H68.4579V24.16ZM68.4579 15.92H75.6099V17.632H70.5699V24.832H68.4579V15.92ZM85.6086 16.944H87.2886V18.608C87.2886 21.952 85.8806 25.36 83.1606 26.64L81.9606 24.96C84.4086 23.808 85.6086 21.04 85.6086 18.608V16.944ZM86.0566 16.944H87.7366V18.608C87.7366 20.848 88.8886 23.472 91.3206 24.592L90.1526 26.272C87.4326 25.008 86.0566 21.76 86.0566 18.608V16.944ZM82.5366 16.032H90.6646V17.776H82.5366V16.032ZM91.7526 14.608H93.8966V29.424H91.7526V14.608ZM93.4166 20.256H96.0406V22.016H93.4166V20.256ZM107.175 14.624H109.319V25.264H107.175V14.624ZM99.4474 27.472H109.687V29.168H99.4474V27.472ZM99.4474 24.192H101.575V28.16H99.4474V24.192ZM101.255 15.552C103.527 15.552 105.271 17.12 105.271 19.312C105.271 21.488 103.527 23.072 101.255 23.072C98.9834 23.072 97.2234 21.488 97.2234 19.312C97.2234 17.12 98.9834 15.552 101.255 15.552ZM101.255 17.392C100.151 17.392 99.3034 18.096 99.3034 19.312C99.3034 20.512 100.151 21.216 101.255 21.216C102.343 21.216 103.191 20.512 103.191 19.312C103.191 18.096 102.343 17.392 101.255 17.392ZM125.191 14.608H127.303V29.424H125.191V14.608ZM126.823 20.384H129.447V22.16H126.823V20.384ZM115.623 16.8H124.247V18.496H115.623V16.8ZM119.959 19.328C122.119 19.328 123.719 20.8 123.719 22.864C123.719 24.928 122.119 26.4 119.959 26.4C117.799 26.4 116.199 24.928 116.199 22.864C116.199 20.8 117.799 19.328 119.959 19.328ZM119.959 21.056C118.951 21.056 118.231 21.728 118.231 22.864C118.231 24 118.951 24.672 119.959 24.672C120.967 24.672 121.687 24 121.687 22.864C121.687 21.728 120.967 21.056 119.959 21.056ZM118.887 14.848H121.015V17.44H118.887V14.848ZM140.614 14.608H142.758V29.424H140.614V14.608ZM136.246 16.144H138.358C138.358 20.672 136.822 24.384 131.558 26.928L130.454 25.232C134.71 23.184 136.246 20.496 136.246 16.528V16.144ZM131.238 16.144H137.254V17.824H131.238V16.144Z" fill="white"/>
</svg>
